<?xml version="1.0" encoding="UTF-8"?>
<!DOCTYPE svg PUBLIC "-//W3C//DTD SVG 1.1//EN" "http://www.w3.org/Graphics/SVG/1.1/DTD/svg11.dtd">
<!-- Creator: CorelDRAW -->
<svg xmlns="http://www.w3.org/2000/svg" xml:space="preserve" width="173.382mm" height="60.891mm" version="1.1" style="shape-rendering:geometricPrecision; text-rendering:geometricPrecision; image-rendering:optimizeQuality; fill-rule:evenodd; clip-rule:evenodd"
viewBox="0 0 4538.31 1593.83"
 xmlns:xlink="http://www.w3.org/1999/xlink"
 xmlns:xodm="http://www.corel.com/coreldraw/odm/2003">
 <defs>
  <style type="text/css">
   <![CDATA[
    .fil2 {fill:#06520F;fill-rule:nonzero}
    .fil0 {fill:url(#id0)}
    .fil1 {fill:url(#id1)}
   ]]>
  </style>
  <linearGradient id="id0" gradientUnits="userSpaceOnUse" x1="112.36" y1="194.46" x2="2539.82" y2="2874.46">
   <stop offset="0" style="stop-opacity:1; stop-color:#62A949"/>
   <stop offset="0.0784314" style="stop-opacity:1; stop-color:#85CD59"/>
   <stop offset="0.0901961" style="stop-opacity:1; stop-color:#4A8E3E"/>
   <stop offset="0.2" style="stop-opacity:1; stop-color:#72B750"/>
   <stop offset="0.211765" style="stop-opacity:1; stop-color:#468A3C"/>
   <stop offset="0.568627" style="stop-opacity:1; stop-color:#468A3C"/>
   <stop offset="0.6" style="stop-opacity:1; stop-color:#62A949"/>
   <stop offset="0.701961" style="stop-opacity:1; stop-color:#468A3C"/>
   <stop offset="0.729412" style="stop-opacity:1; stop-color:#85CD59"/>
   <stop offset="1" style="stop-opacity:1; stop-color:#85CD59"/>
  </linearGradient>
  <linearGradient id="id1" gradientUnits="userSpaceOnUse" xlink:href="#id0" x1="4159.29" y1="768.46" x2="1045.73" y2="2803.75">
  </linearGradient>
 </defs>
 <g id="Camada_x0020_1">
  <metadata id="CorelCorpID_0Corel-Layer"/>
  <path class="fil0" d="M15 163.14l271.31 -154.84c8.43,-4.79 18.41,-4.36 26.2,0.25l272.59 155.57c8.46,4.8 13.21,13.62 13.22,22.7l0.07 0 0 529.75c0,10.71 -6.44,19.92 -15.66,23.97l-131.67 72.01c-12.65,6.89 -28.49,2.22 -35.38,-10.43 -2.16,-3.97 -3.19,-8.25 -3.18,-12.48l-0.09 0 0 -183.44 -100.33 57.26c-8.43,4.79 -18.41,4.36 -26.2,-0.25l-99.9 -57.01 0 183.44c0,14.45 -11.72,26.18 -26.18,26.18 -5.35,0 -10.32,-1.61 -14.47,-4.36l-131.64 -71.99c-8.68,-4.73 -13.6,-13.67 -13.61,-22.9l-0.09 0 0 -529.75c0,-10.46 6.14,-19.48 15,-23.67zm3802.58 497.49l-256.91 150.88c-7.91,5.14 -18.35,5.8 -27.12,0.82l-264.42 -150.51c-8.88,-4.19 -15.02,-13.22 -15.02,-23.69l0 -303.35 0.1 0c0.01,-8.94 4.62,-17.65 12.89,-22.49l133.13 -78.23c23.7,-13.94 63.99,-37.68 132.92,-78.35l0.03 0.04c7.89,-4.65 18,-5 26.46,-0.04l255.98 150.34c8.84,4.2 14.96,13.21 14.96,23.66l0 308.44 -0.1 0c-0.01,8.94 -4.62,17.65 -12.89,22.49zm-972.67 -150.31l-88.47 56.69 82.53 47.46 113.66 -67.5 0 -118.02 -95.65 -56.8 0 116.18 -0.05 0c-0.01,8.59 -4.25,17 -12.01,21.98zm-155.2 -116.18c33.46,-19.87 67.56,-39.91 102.66,-60.34l-88.18 -52.37 0.02 -0.03c-3.63,-2.14 -6.8,-5.2 -9.12,-9.07 -7.4,-12.37 -3.37,-28.39 9,-35.79l120.54 -71.91c8.1,-5.45 18.94,-6.13 27.91,-0.83l253.76 150.69c8.45,4.34 14.24,13.15 14.24,23.3l0 300.33 -0.04 0c-0.01,8.93 -4.6,17.62 -12.84,22.49l-255.12 151.5 -0.03 -0.05c-7.82,4.61 -17.82,5 -26.25,0.16l-261.09 -150.27c-9.04,-4.13 -15.32,-13.24 -15.32,-23.82l0 -145.12 0.06 0c0.01,-8.79 4.46,-17.38 12.52,-22.29 43.69,-26.61 85.87,-51.99 127.29,-76.59zm-522.25 116.18l-88.47 56.69 82.53 47.46 113.66 -67.5 0 -118.02 -95.65 -56.8 0 116.18 -0.05 0c-0.01,8.59 -4.25,17 -12.01,21.98zm-155.2 -116.18c33.46,-19.87 67.56,-39.91 102.66,-60.34l-88.18 -52.37 0.02 -0.03c-3.63,-2.14 -6.8,-5.2 -9.12,-9.07 -7.4,-12.37 -3.37,-28.39 9,-35.79l120.54 -71.91c8.1,-5.45 18.94,-6.13 27.91,-0.83l253.76 150.69c8.45,4.34 14.24,13.15 14.24,23.3l0 300.33 -0.04 0c-0.01,8.93 -4.6,17.62 -12.84,22.49l-255.12 151.5 -0.03 -0.05c-7.82,4.61 -17.82,5 -26.25,0.16l-261.09 -150.27c-9.04,-4.13 -15.32,-13.24 -15.32,-23.82l0 -145.12 0.06 0c0.01,-8.79 4.46,-17.38 12.52,-22.29 43.69,-26.61 85.87,-51.99 127.29,-76.59zm-1067.37 23.43l0.17 135.41 108.28 61.59 115.12 -67.61 0 -126.08 -114.86 -67.45 -108.72 64.14zm379.78 243.07l-256.91 150.88c-7.91,5.14 -18.35,5.8 -27.12,0.82l-264.42 -150.51c-8.88,-4.19 -15.02,-13.22 -15.02,-23.69l0 -534.69 0.1 0c0.01,-8.94 4.62,-17.65 12.89,-22.49l129.44 -76.1c4.28,-3.05 9.52,-4.85 15.18,-4.85 14.45,0 26.18,11.72 26.18,26.18l0 185.74 95.26 -56.2 0.03 0.04c7.89,-4.65 18,-5 26.46,-0.04l255.98 150.34c8.84,4.2 14.96,13.21 14.96,23.66l0 308.44 -0.1 0c-0.01,8.94 -4.62,17.65 -12.89,22.49zm145.04 47.78l0 -444.68c0,-10.11 5.74,-18.89 14.13,-23.24l130.96 -80.27c8.79,-5.36 19.5,-4.91 27.63,0.27l132.08 80.95c8.06,4.92 12.51,13.5 12.52,22.29l0.06 0 0 157.16c0,14.45 -11.72,26.18 -26.18,26.18 -5.67,0 -10.92,-1.81 -15.21,-4.87l-91.13 -55.86 0 403.3c0,14.45 -11.72,26.18 -26.18,26.18 -5.67,0 -10.92,-1.81 -15.21,-4.87l-130.91 -80.24c-8.06,-4.92 -12.51,-13.5 -12.52,-22.29l-0.06 0zm-1057.32 -436.91l-113.21 -64.61 -113.21 64.61 0 128.74 113.21 64.61 113.21 -64.61 0 -128.74z"/>
  <path class="fil1" d="M1086.99 935.6l271.31 -154.84c8.43,-4.79 18.41,-4.36 26.2,0.25l272.59 155.57c8.46,4.8 13.21,13.62 13.22,22.7l0.07 0 0 529.75c0,10.71 -6.44,19.92 -15.66,23.97l-131.67 72.01c-12.65,6.89 -28.49,2.22 -35.38,-10.43 -2.16,-3.97 -3.19,-8.25 -3.18,-12.48l-0.09 0 0 -183.44 -100.33 57.26c-8.43,4.79 -18.41,4.36 -26.2,-0.25l-99.9 -57.01 0 183.44c0,14.45 -11.72,26.18 -26.18,26.18 -5.35,0 -10.32,-1.61 -14.47,-4.36l-131.64 -71.99c-8.68,-4.73 -13.6,-13.67 -13.61,-22.9l-0.09 0 0 -529.75c0,-10.46 6.14,-19.48 15,-23.67zm2796.23 -55.58l0 606.48c0,10.11 -5.74,18.89 -14.13,23.24l-130.96 80.27c-8.79,5.36 -19.5,4.91 -27.63,-0.27l-132.08 -80.96c-8.06,-4.92 -12.51,-13.5 -12.52,-22.29l-0.06 0 0 -157.16c0,-14.45 11.72,-26.18 26.18,-26.18 5.67,0 10.92,1.81 15.21,4.87l91.13 55.86 0 -565.1c0,-14.45 11.72,-26.18 26.18,-26.18 5.67,0 10.92,1.81 15.21,4.87l130.91 80.24c8.06,4.92 12.51,13.5 12.52,22.29l0.06 0zm-819.94 67.66l0 371.14 106.59 60.13 106.59 -60.13 0 -371.14 0.1 0c-0,-4.49 1.15,-9.04 3.58,-13.19 7.28,-12.42 23.26,-16.59 35.68,-9.31l131.81 77.09c8.87,4.19 15.01,13.22 15.01,23.68l0 391.09 -0.09 0c-0.01,9.23 -4.93,18.18 -13.61,22.9l-266.37 144.94c-7.55,4.2 -17.03,4.56 -25.18,0.12l-264.59 -143.97c-9.24,-4.04 -15.71,-13.26 -15.71,-23.99l0 -391.09 0.1 0c0.01,-8.94 4.62,-17.65 12.89,-22.49l131.88 -77.14c4.27,-3.03 9.49,-4.82 15.13,-4.82 14.45,0 26.18,11.72 26.18,26.18zm1462.04 491.04l-256.91 150.88c-7.91,5.14 -18.35,5.8 -27.12,0.82l-264.42 -150.51c-8.88,-4.19 -15.02,-13.22 -15.02,-23.69l0 -303.35 0.1 0c0.01,-8.94 4.62,-17.65 12.89,-22.49l133.13 -78.23c23.7,-13.94 63.99,-37.68 132.92,-78.35l0.03 0.04c7.89,-4.65 18,-5 26.46,-0.04l255.98 150.34c8.84,4.2 14.96,13.21 14.96,23.66l0 308.44 -0.1 0c-0.01,8.94 -4.62,17.65 -12.89,22.49zm-2025.15 -155.93l-88.47 56.69 82.53 47.46 113.66 -67.5 0 -118.02 -95.65 -56.8 0 116.18 -0.05 0c-0.01,8.59 -4.25,17 -12.01,21.98zm-155.2 -116.18c33.46,-19.87 67.56,-39.91 102.66,-60.34l-88.18 -52.37 0.02 -0.03c-3.63,-2.14 -6.8,-5.2 -9.12,-9.07 -7.4,-12.37 -3.37,-28.39 9,-35.79l120.54 -71.91c8.1,-5.45 18.94,-6.13 27.91,-0.83l253.76 150.69c8.46,4.34 14.24,13.15 14.24,23.3l0 300.33 -0.04 0c-0.01,8.93 -4.6,17.62 -12.84,22.49l-255.12 151.5 -0.03 -0.05c-7.82,4.61 -17.82,5 -26.25,0.16l-261.09 -150.27c-9.04,-4.13 -15.32,-13.24 -15.32,-23.82l0 -145.12 0.06 0c0.01,-8.79 4.46,-17.38 12.52,-22.29 43.69,-26.61 85.87,-51.99 127.29,-76.59zm-542.54 314.27l0 -444.68c0,-10.11 5.74,-18.88 14.13,-23.24l130.96 -80.27c8.79,-5.36 19.5,-4.91 27.63,0.27l132.08 80.96c8.06,4.92 12.51,13.5 12.52,22.29l0.06 0 0 157.16c0,14.45 -11.72,26.18 -26.18,26.18 -5.67,0 -10.92,-1.81 -15.21,-4.87l-91.13 -55.86 0 403.3c0,14.45 -11.72,26.18 -26.18,26.18 -5.67,0 -10.92,-1.81 -15.21,-4.87l-130.91 -80.24c-8.06,-4.92 -12.51,-13.5 -12.52,-22.29l-0.06 0zm-318.04 -436.91l-113.21 -64.61 -113.21 64.61 0 128.74 113.21 64.61 113.21 -64.61 0 -128.74z"/>
  <path class="fil2" d="M4201.68 459.25c0,2.98 -1.22,5.69 -3.19,7.66l-0.03 0.03c-1.97,1.96 -4.69,3.19 -7.66,3.19 -2.98,0 -5.69,-1.22 -7.67,-3.19 -1.99,-1.97 -3.22,-4.68 -3.22,-7.69l0.03 -151.45c-0.03,-7.83 0.79,-14.26 2.95,-19.29l0.18 -0.38c5.86,-13.06 22.82,-21.84 39.6,-6.61l233.57 233.57c10.98,10.98 16.47,25.44 16.47,39.87 0,14.44 -5.49,28.89 -16.46,39.87l-233.57 233.57 -0.05 0c-10.98,10.97 -25.41,16.47 -39.82,16.47 -14.41,0 -28.85,-5.5 -39.83,-16.47l-0.05 0 -233.57 -233.57c-10.98,-10.98 -16.47,-25.44 -16.47,-39.88 0,-14.44 5.49,-28.89 16.46,-39.87l115.19 -115.19c-5.31,-5.2 -10.44,-10.44 -15.32,-15.75l-5.45 -6.05c-2.49,-2.8 -2.24,-7.08 0.56,-9.57 4.18,-3.71 20.54,0.29 22.84,3.04 6.91,7.39 14.31,14.66 21.95,21.85 8.21,7.73 16.07,14.84 23.96,21.96l0.08 0.08c14.27,12.9 28.63,25.88 41.77,39.29l0.12 0.13c12.78,13.05 24.54,26.63 34.24,41.15 7.72,11.55 14.12,23.68 18.7,36.58 23.06,-22.73 57.85,-54.26 91.04,-84.35l0.75 -0.68c16.53,-14.98 32.65,-29.6 47.37,-43.19l-103.68 -103.68c-0.42,-0.42 -0.86,-0.83 -1.3,-1.22 -0.37,2.05 -0.52,4.86 -0.52,8.32l0 151.45zm-157.36 -40.73l-115.75 115.75c-5.67,5.67 -8.51,13.17 -8.51,20.68 0,7.5 2.84,15 8.5,20.67l233.57 233.57 -0.02 0.02c5.67,5.66 13.18,8.49 20.7,8.49 7.53,0 15.04,-2.83 20.7,-8.49l-0.02 -0.02 233.57 -233.57c5.67,-5.67 8.51,-13.17 8.51,-20.68 0,-7.5 -2.83,-15 -8.51,-20.67l-114.56 -114.56c-14.41,13.31 -31.08,28.43 -48.2,43.95l-0.7 0.63c-12.47,11.3 -25.16,22.8 -37.24,33.83 1.06,0.01 2.05,0.11 2.96,0.26l0.29 0.06c0.91,0.18 1.84,0.42 2.77,0.73l0.36 0.12c3.57,1.27 6.42,3.45 8.57,6.41 2.03,2.77 3.39,6.16 4.11,10.06l0.04 0.29c0.74,4.15 0.76,9.01 0.15,14.3 -0.61,5.28 -1.87,11.16 -3.67,17.33 -1.73,5.91 -3.96,12.08 -6.58,18.2 -2.56,5.98 -5.54,12.02 -8.85,17.84 -1.44,2.54 -2.92,4.99 -4.38,7.29 -1.05,1.64 -2.13,3.26 -3.22,4.83 0.18,2.93 0.4,5.7 0.63,8.28 0.3,3.28 0.68,6.57 1.11,9.83 1.61,11.93 4.33,22.95 7.5,33.19 3.14,10.14 6.87,19.89 10.34,29 3.3,8.62 6.39,16.69 8.77,24.61l0.17 0.71c0.46,1.98 0.34,3.97 -0.25,5.78l-0.31 0.8c-0.67,1.6 -1.72,3.05 -3.07,4.17l-6.08 5.38c-12.21,10.81 -23.3,20.66 -31.33,31.73 -7.77,10.71 -12.79,22.8 -13.36,38.57l-0.01 0.21c-0.16,2.84 -1.41,5.39 -3.3,7.22 -1.96,1.89 -4.62,3.05 -7.52,3.05l-3.82 -0.02c-1.35,0.02 -2.63,-0.22 -3.82,-0.67l0 -89.38 2.08 -1.2 4.38 -2.53 0 -5.06 0 -5.06 -4.38 -2.53 -4.38 -2.53 -4.38 2.53 -4.39 2.53 0 5.06 0 5.06 4.39 2.53 3.15 1.82 0 88.08c-1.55,0.86 -3.35,1.34 -5.27,1.35l-3.82 -0c-2.98,0.03 -5.7,-1.2 -7.67,-3.16 -1.99,-1.97 -3.21,-4.69 -3.21,-7.69l0.01 -0.38c-0.71,-15.45 -5.73,-27.35 -13.41,-37.91 -8.1,-11.14 -19.3,-21.06 -31.61,-31.95l-5.95 -5.29c-1.99,-1.76 -3.19,-4.08 -3.55,-6.49l-0.08 -0.87c-0.16,-2.2 0.34,-4.43 1.51,-6.36l5.21 -8.57c7.85,-12.95 15.29,-25.25 21.57,-37.5 5.5,-10.73 10.14,-21.5 13.41,-32.77 -1.01,-0.83 -1.97,-1.71 -2.86,-2.63 -2.13,-2.16 -3.96,-4.58 -5.47,-7.17 -1.8,-3.07 -3.15,-6.39 -4.05,-9.89 -0.91,-3.54 -1.37,-7.17 -1.37,-10.83 0.03,-4.1 0.55,-8.33 1.6,-12.57 1.02,-4.12 2.55,-8.33 4.57,-12.54 0.95,-2 2.58,-4.41 4.8,-7.19 1.46,-1.82 3.21,-3.87 5.24,-6.12 -5.65,-22.47 -18.03,-42.59 -33.78,-61.43 -16.95,-20.28 -37.73,-39.05 -58.32,-57.66 -4.8,-4.33 -9.59,-8.66 -14.23,-12.91zm169.13 100.69c-15.72,14.59 -29.49,27.71 -39.27,37.75 0.84,5.42 1.36,10.98 1.52,16.66 0.2,6.96 -0.12,14.05 -1.01,21.26 -0.24,3.14 -0.58,6.27 -1.02,9.36l-0.47 3.05 0.11 0.02c1.98,0.31 4.24,0.48 6.79,0.48 4.07,0 8.35,-1.73 12.64,-4.68 4.86,-3.34 9.64,-8.16 14.12,-13.85 -0.3,-7.59 -0.35,-15.4 -0.13,-23.06 0.24,-8.19 0.78,-16.07 1.65,-23.17 0.69,-5.64 1.6,-10.95 2.74,-15.74 0.68,-2.85 1.45,-5.56 2.32,-8.07zm-33.34 110.33c-3.43,0 -6.69,-0.25 -9.76,-0.71l-2.16 -0.37c-3.64,11.7 -8.53,22.85 -14.23,33.92 -6.55,12.72 -14.32,25.54 -22.51,39.05l-0.19 0.36c12.86,11.39 24.6,21.86 33.64,34.03l0 -14.72c-0.55,-0.42 -1.08,-0.86 -1.58,-1.32l-0.44 -0.44c-1.31,-1.26 -2.5,-2.67 -3.53,-4.23 -1.42,-2.11 -2.53,-4.49 -3.27,-7.13 -0.69,-2.47 -1.06,-5.11 -1.06,-7.93 0,-3.45 0.8,-6.94 2.23,-10.2 1.42,-3.23 3.48,-6.25 5.99,-8.78 2.43,-2.46 5.38,-4.5 8.71,-5.94 3.16,-1.37 6.59,-2.15 10.15,-2.15 3.59,0 7.02,0.77 10.15,2.12 3.25,1.4 6.18,3.46 8.66,5.93l0.03 0.03c2.55,2.56 4.61,5.57 6.02,8.76l0.16 0.41c1.33,3.16 2.07,6.51 2.07,9.84 0,2.82 -0.37,5.46 -1.06,7.93 -0.74,2.63 -1.85,5.01 -3.26,7.14l-0.3 0.42c-1.08,1.56 -2.32,2.96 -3.68,4.21 -0.51,0.47 -1.04,0.91 -1.58,1.33l0 14.78c1.98,-2.66 4.09,-5.25 6.31,-7.79 8.17,-9.32 17.81,-17.86 28.16,-27.03l0.61 -0.54 -2.1 -5.86c-1.2,-3.26 -2.61,-6.96 -4.07,-10.76 -3.56,-9.32 -7.36,-19.27 -10.83,-30.52 -3.37,-10.93 -6.3,-22.75 -8.09,-35.71 -2.85,2.32 -5.78,4.36 -8.76,6.05 -6.55,3.71 -13.4,5.84 -20.41,5.84zm49.9 -84.24l1.13 -3.65c1.4,-4.81 2.39,-9.31 2.88,-13.29 0.14,-1.08 0.23,-2.11 0.29,-3.08 -0.76,2.08 -1.46,4.5 -2.09,7.19 -0.89,3.82 -1.63,8.15 -2.22,12.83z"/>
 </g>
</svg>
